HIERARCHY
ROOT Hips
{
    OFFSET 0.000000 0.000000 0.000000
    CHANNELS 6 Xposition Yposition Zposition Zrotation Xrotation Yrotation
    JOINT Spine
    {
        OFFSET -0.000000 14.517291 0.000000
        CHANNELS 3 Zrotation Xrotation Yrotation
        JOINT Spine1
        {
            OFFSET -0.000000 37.558300 0.000000
            CHANNELS 3 Zrotation Xrotation Yrotation
            JOINT Neck
            {
                OFFSET -0.000000 37.404057 3.400369
                CHANNELS 3 Zrotation Xrotation Yrotation
                JOINT Head
                {
                    OFFSET -0.000000 24.785618 -3.540803
                    CHANNELS 3 Zrotation Xrotation Yrotation
                    End Site
                    {
                        OFFSET -0.000000 35.408028 0.000000
                    }
                }
            }
            JOINT LeftShoulder
            {
                OFFSET 6.992933 33.973492 -0.192664
                CHANNELS 3 Zrotation Xrotation Yrotation
                JOINT LeftArm
                {
                    OFFSET 21.527611 0.000000 0.000000
                    CHANNELS 3 Zrotation Xrotation Yrotation
                    JOINT LeftForeArm
                    {
                        OFFSET 56.353916 0.000000 0.000000
                        CHANNELS 3 Zrotation Xrotation Yrotation
                        JOINT LeftHand
                        {
                            OFFSET 47.774071 0.000000 0.000000
                            CHANNELS 3 Zrotation Xrotation Yrotation
                            End Site
                            {
                                OFFSET 26.556021 0.000000 0.000000
                            }
                        }
                    }
                }
            }
            JOINT RightShoulder
            {
                OFFSET -7.065357 33.973492 -0.192664
                CHANNELS 3 Zrotation Xrotation Yrotation
                JOINT RightArm
                {
                    OFFSET -21.527611 0.000000 0.000000
                    CHANNELS 3 Zrotation Xrotation Yrotation
                    JOINT RightForeArm
                    {
                        OFFSET -56.353916 0.000000 0.000000
                        CHANNELS 3 Zrotation Xrotation Yrotation
                        JOINT RightHand
                        {
                            OFFSET -47.774071 0.000000 0.000000
                            CHANNELS 3 Zrotation Xrotation Yrotation
                            End Site
                            {
                                OFFSET -26.556021 0.000000 0.000000
                            }
                        }
                    }
                }
            }
        }
    }
    JOINT LeftUpLeg
    {
        OFFSET 17.704014 0.000000 0.000000
        CHANNELS 3 Zrotation Xrotation Yrotation
        JOINT LeftLeg
        {
            OFFSET -0.000000 -81.181816 0.000000
            CHANNELS 3 Zrotation Xrotation Yrotation
            JOINT LeftFoot
            {
                OFFSET -0.000000 -62.821102 0.000000
                CHANNELS 3 Zrotation Xrotation Yrotation
                JOINT LeftToeBase
                {
                    OFFSET -0.000000 -11.507608 26.556021
                    CHANNELS 3 Zrotation Xrotation Yrotation
                    End Site
                    {
                        OFFSET -0.000000 0.000000 7.081605
                    }
                }
            }
        }
    }
    JOINT RightUpLeg
    {
        OFFSET -17.704014 0.000000 0.000000
        CHANNELS 3 Zrotation Xrotation Yrotation
        JOINT RightLeg
        {
            OFFSET -0.000000 -81.181816 0.000000
            CHANNELS 3 Zrotation Xrotation Yrotation
            JOINT RightFoot
            {
                OFFSET -0.000000 -62.821102 0.000000
                CHANNELS 3 Zrotation Xrotation Yrotation
                JOINT RightToeBase
                {
                    OFFSET -0.000000 -11.507608 26.556021
                    CHANNELS 3 Zrotation Xrotation Yrotation
                    End Site
                    {
                        OFFSET -0.000000 0.000000 7.081605
                    }
                }
            }
        }
    }
}
MOTION
Frames:    8
Frame Time:    0.008333
-7.691510    159.058685    -90.925529    -3.068955    -7.884908    48.059296    0.350756    -2.994240    -1.818237    -11.369123    -1.634533    -0.774035    8.343843    -2.231521    -18.062931    9.591218    11.742169    -19.897017    9.267719    7.549009    -22.004498    -36.397568    21.072737    -47.435661    -8.105808    -9.866518    -115.383041    3.737955    -22.287828    -1.926032    -21.222366    -15.274740    -10.537621    17.864721    -32.878876    58.892117    -12.070303    -25.745897    30.500820    7.463703    -21.029552    27.608654    24.113426    4.304016    -5.328909    -8.755400    20.130932    -19.657993    -3.935817    -23.150703    42.277294    0.000000    0.000000    0.000000    -8.220612    -10.061918    -20.428816    3.804927    11.648799    -19.168901    7.135538    12.297601    -11.014371    0.000000    0.000000    0.000000    
-7.751751    159.045227    -90.966858    -3.089764    -7.824393    48.067791    0.304463    -2.990308    -1.794963    -11.259810    -1.567032    -0.757642    8.244481    -2.225923    -18.094894    9.631552    11.499392    -19.890732    9.205296    7.543122    -21.983681    -36.370155    21.079681    -47.429619    -8.105782    -9.868826    -115.405655    3.709248    -22.294006    -1.901363    -21.074694    -15.106758    -10.472938    18.030296    -32.581505    58.878784    -12.124542    -25.897146    30.427229    7.528428    -21.163452    27.636919    24.071413    4.152479    -5.307608    -8.739153    20.280874    -19.609417    -3.947595    -23.151434    42.195438    0.000000    0.000000    0.000000    -8.254237    -10.138218    -20.480709    3.801768    11.653919    -19.164797    7.115051    12.281693    -10.970374    0.000000    0.000000    0.000000    
-7.810691    159.035629    -91.005241    -3.108626    -7.767399    48.071205    0.270924    -2.983302    -1.775802    -11.164922    -1.504105    -0.743431    8.153994    -2.223273    -18.113337    9.651499    11.261666    -19.873072    9.141356    7.534771    -21.940655    -36.331203    21.102674    -47.434727    -8.474463    -9.897548    -115.538704    3.824743    -22.899212    -1.762177    -20.876703    -14.873472    -10.361251    18.161911    -32.349400    58.862801    -12.216417    -26.029451    30.324942    7.716613    -21.245253    27.628273    24.052177    4.068104    -5.269468    -8.753357    20.295731    -19.600714    -3.976005    -23.163929    42.190742    0.000000    0.000000    0.000000    -8.282669    -10.205977    -20.521688    3.798602    11.639354    -19.136425    7.080871    12.289783    -10.953070    0.000000    0.000000    0.000000    
-7.869515    159.025879    -91.042480    -3.132616    -7.706899    48.077286    0.288588    -2.987242    -1.759347    -11.075613    -1.444459    -0.731946    7.893215    -2.110467    -18.203854    9.823540    10.913217    -19.878456    8.964446    7.523294    -21.890169    -36.169987    21.149826    -47.376682    -8.494493    -9.966628    -115.607819    3.864940    -23.011057    -1.759759    -20.810730    -14.669571    -10.274203    18.331074    -32.032055    58.853069    -12.287125    -26.380707    30.255108    7.874183    -21.570230    27.521080    24.031549    3.978813    -5.233413    -8.761354    20.310871    -19.603228    -3.986157    -23.173298    42.180641    0.000000    0.000000    0.000000    -8.307656    -10.282402    -20.555622    3.788396    11.635054    -19.127569    7.060197    12.286758    -10.934582    0.000000    0.000000    0.000000    
-7.932819    159.015976    -91.079803    -3.162751    -7.636971    48.085545    0.243301    -2.999994    -1.747183    -10.979479    -1.379755    -0.720087    7.844946    -2.094556    -18.214952    9.803236    10.651342    -19.858534    8.936067    7.505567    -21.857347    -36.149399    21.162413    -47.380028    -8.512641    -9.969544    -115.603378    3.898967    -23.040207    -1.765215    -20.569670    -14.437510    -10.154067    18.420166    -31.771561    58.838493    -12.446743    -26.313925    30.039822    7.739721    -21.508310    27.614460    24.006165    3.876729    -5.179595    -8.758348    20.328348    -19.598772    -4.009944    -23.168158    42.136200    0.000000    0.000000    0.000000    -8.341319    -10.372027    -20.585674    3.791962    11.637543    -19.132015    7.047931    12.274487    -10.916821    0.000000    0.000000    0.000000    
-7.998189    159.010605    -91.113571    -3.204261    -7.573955    48.088257    0.191186    -3.018023    -1.724504    -10.838593    -1.315344    -0.704207    7.750550    -2.133818    -18.196337    9.792454    10.490444    -19.812088    8.879645    7.497734    -21.842823    -36.126423    21.132765    -47.375595    -8.527826    -9.932252    -115.585251    3.913807    -23.027443    -1.870036    -20.407095    -14.252018    -10.056459    18.530510    -31.424372    58.795254    -12.607474    -26.432926    29.856873    7.741811    -21.615654    27.543325    23.999146    3.773513    -5.144340    -8.770461    20.339872    -19.588930    -4.024383    -23.152008    42.117710    0.000000    0.000000    0.000000    -8.356647    -10.459844    -20.604408    3.794077    11.623676    -19.151093    7.030468    12.284246    -10.895746    0.000000    0.000000    0.000000    
-8.061332    159.004410    -91.143929    -3.234508    -7.509299    48.088615    0.132183    -3.026216    -1.700868    -10.658191    -1.265020    -0.688626    7.535522    -2.066829    -18.253971    9.897060    10.235306    -19.804314    8.744455    7.487511    -21.829285    -36.029751    21.140133    -47.325191    -8.119604    -9.939178    -115.455727    3.854457    -22.400015    -2.074285    -20.244635    -13.980551    -9.978521    18.654011    -31.140337    58.859688    -12.811970    -26.643045    29.635586    8.181253    -21.693863    27.725767    23.979048    3.682938    -5.108511    -8.775645    20.344048    -19.586315    -4.038692    -23.137411    42.105160    0.000000    0.000000    0.000000    -8.381454    -10.540815    -20.632479    3.792605    11.612003    -19.170542    7.009155    12.286993    -10.848201    0.000000    0.000000    0.000000    
-8.127129    158.997864    -91.173080    -3.281636    -7.441356    48.091122    0.108858    -3.047681    -1.697843    -10.548618    -1.201839    -0.680459    7.379846    -2.043863    -18.282602    9.986244    10.002389    -19.781593    8.675087    7.466261    -21.748013    -35.959560    21.173630    -47.330845    -8.511986    -9.980509    -115.604584    3.885001    -23.049202    -1.747878    -20.076271    -13.787888    -9.901398    18.919765    -30.904160    58.971939    -12.834767    -26.668997    29.413311    7.978984    -21.804079    27.471828    23.967863    3.569709    -5.064465    -8.774750    20.369925    -19.584782    -4.058911    -23.139038    42.082195    0.000000    0.000000    0.000000    -8.365519    -10.651756    -20.763422    3.693381    11.611660    -19.182344    6.998832    12.318398    -10.702435    0.000000    0.000000    0.000000    
